<svg width="22" height="17" viewBox="0 0 22 17" fill="none" xmlns="http://www.w3.org/2000/svg">
<path d="M7.79334 15.7901L8.14698 16.1434L8.50037 15.7898L21.1537 3.12979L21.1673 3.11618L21.1798 3.10156C21.371 2.87837 21.4708 2.59128 21.4595 2.29767C21.4481 2.00404 21.3264 1.72551 21.1187 1.51774C20.9109 1.30996 20.6323 1.18824 20.3387 1.1769C20.0451 1.16555 19.758 1.26543 19.5348 1.45656L19.5203 1.46903L19.5067 1.48258L8.13359 12.8428L2.48694 7.19611L2.47328 7.18245L2.45861 7.16989C2.23543 6.97876 1.94834 6.87889 1.65472 6.89023C1.3611 6.90157 1.08257 7.02329 0.87479 7.23107C0.667013 7.43884 0.545292 7.71737 0.533951 8.011C0.522609 8.30462 0.622483 8.59171 0.813614 8.81489L0.826254 8.82965L0.840002 8.84339L7.79334 15.7901Z" fill="#428BCA" stroke="#428BCA"/>
</svg>
