<svg width="24" height="25" viewBox="0 0 24 25" fill="none" xmlns="http://www.w3.org/2000/svg">
<g clip-path="url(#clip0_1_200)">
<path d="M12.0001 5.4563C11.2445 5.4563 10.506 5.68034 9.87778 6.10008C9.24958 6.51983 8.75996 7.11643 8.47084 7.81445C8.18171 8.51246 8.10606 9.28054 8.25346 10.0215C8.40085 10.7626 8.76467 11.4432 9.29891 11.9774C9.83314 12.5117 10.5138 12.8755 11.2548 13.0229C11.9958 13.1703 12.7639 13.0946 13.4619 12.8055C14.1599 12.5164 14.7565 12.0268 15.1763 11.3986C15.596 10.7704 15.8201 10.0318 15.8201 9.2763C15.8201 8.26317 15.4176 7.29154 14.7012 6.57515C13.9848 5.85876 13.0132 5.4563 12.0001 5.4563ZM12.0001 11.763C11.5082 11.763 11.0275 11.6171 10.6185 11.3439C10.2096 11.0706 9.89088 10.6823 9.70268 10.2279C9.51447 9.77353 9.46522 9.27354 9.56117 8.79117C9.65712 8.30881 9.89395 7.86573 10.2417 7.51796C10.5895 7.17019 11.0326 6.93336 11.5149 6.83741C11.9973 6.74146 12.4973 6.79071 12.9517 6.97892C13.406 7.16713 13.7944 7.48585 14.0676 7.89478C14.3409 8.30371 14.4867 8.78448 14.4867 9.2763C14.485 9.93465 14.2222 10.5654 13.756 11.0303C13.2899 11.4952 12.6584 11.7563 12.0001 11.7563V11.763Z" fill="#428BCA"/>
<path d="M11.9999 2.30969C9.92341 2.31143 7.93193 3.13482 6.46048 4.60002C4.98903 6.06523 4.15717 8.05318 4.14661 10.1297C4.14661 13.243 5.89327 15.8497 7.17327 17.7497L7.40661 18.0964C8.68013 19.9421 10.0463 21.7222 11.4999 23.4297L12.0066 24.023L12.5133 23.4297C13.9667 21.722 15.3329 19.942 16.6066 18.0964L16.8399 17.743C18.1133 15.843 19.8599 13.243 19.8599 10.1297C19.8494 8.05203 19.0166 6.06307 17.5437 4.59767C16.0708 3.13228 14.0776 2.30967 11.9999 2.30969ZM15.7266 16.9764L15.4866 17.3297C14.3399 19.0497 12.8199 20.9764 11.9999 21.9297C11.2133 20.9764 9.65994 19.0497 8.51327 17.3297L8.27994 16.9764C7.09994 15.2164 5.47994 12.8097 5.47994 10.103C5.47994 9.24681 5.64858 8.39897 5.97625 7.60793C6.30391 6.81689 6.78417 6.09813 7.3896 5.49269C7.99504 4.88725 8.7138 4.40699 9.50484 4.07933C10.2959 3.75167 11.1437 3.58303 11.9999 3.58303C12.8562 3.58303 13.704 3.75167 14.495 4.07933C15.2861 4.40699 16.0048 4.88725 16.6103 5.49269C17.2157 6.09813 17.696 6.81689 18.0236 7.60793C18.3513 8.39897 18.5199 9.24681 18.5199 10.103C18.5199 12.8364 16.9066 15.243 15.7266 16.9764Z" fill="#428BCA"/>
</g>
<defs>
<clipPath id="clip0_1_200">
<rect width="24" height="24" fill="white" transform="translate(0 0.976318)"/>
</clipPath>
</defs>
</svg>
